<?xml version="1.0" encoding="UTF-8"?>
<svg version="1.1" xmlns="http://www.w3.org/2000/svg" width="908" height="865">
<path d="M0 0 C3.74228431 3.5503723 5.82904907 5.54191674 6.1965332 10.82592773 C6.29875058 19.1999814 5.34335988 26.89812515 3.60598755 35.07980347 C1.13042808 46.80842762 -0.73173097 58.51212281 -1.9375 70.4375 C-2.12953003 72.31223999 -2.12953003 72.31223999 -2.32543945 74.22485352 C-2.75791533 78.60648739 -2.75791533 78.60648739 -3 83 C-2.67 83.33 -2.34 83.66 -2 84 C-1.15179688 83.11699219 -0.30359375 82.23398437 0.5703125 81.32421875 C7.96390968 73.72071544 15.52933868 66.79651405 24.03515625 60.46435547 C26.17971979 58.86605873 28.30813534 57.24738775 30.4375 55.62890625 C41.25846089 47.46617954 52.38023622 39.97598607 64 33 C64.85384277 32.48663086 65.70768555 31.97326172 66.58740234 31.44433594 C97.49736842 13 97.49736842 13 105 13 C103.52004531 17.07742619 101.50944873 20.55431254 99.25 24.25 C90.81584177 38.61709927 85.11854055 56.25227044 86 73 C86.49886719 72.5153125 86.99773437 72.030625 87.51171875 71.53125 C96.67707998 62.97471887 107.32465825 56.55286591 119 52 C119.80050781 51.6803125 120.60101563 51.360625 121.42578125 51.03125 C133.56578175 46.95311608 149.09740686 47.41367971 161 52 C161 55 161 55 159.85766602 56.45117188 C159.06380493 57.20237305 159.06380493 57.20237305 158.25390625 57.96875 C157.66843018 58.53392334 157.0829541 59.09909668 156.47973633 59.68139648 C155.84704834 60.28153564 155.21436035 60.8816748 154.5625 61.5 C148.56731461 67.34780594 143.09005277 73.33402341 138 80 C137.58717773 80.53109375 137.17435547 81.0621875 136.74902344 81.609375 C107.13135607 119.84269246 88.63642353 167.58969494 94.71826172 216.46777344 C97.98440842 238.12163116 106.40077214 259.51895899 121 276 C121.52722656 276.66902344 122.05445313 277.33804687 122.59765625 278.02734375 C135.60572869 294.16758105 157.21135342 304.7315751 177.4765625 307.68359375 C210.18014686 310.62039013 237.54582514 298.71032702 263 279 C266.45055678 276.112617 269.7341176 273.09241979 273 270 C274.39034614 268.78535694 275.78595562 267.57670441 277.1875 266.375 C283.68466996 260.68347911 289.28231855 254.60411735 294.69140625 247.86328125 C296.15409348 246.0491531 297.6387174 244.25231811 299.15234375 242.48046875 C308.2327337 231.79089577 316.14981373 219.8909989 322.81640625 207.5546875 C323.20699219 207.04164063 323.59757812 206.52859375 324 206 C328.19685915 206 330.07341102 208.34688047 333.0625 211 C334.23993732 212.02192673 335.41833058 213.04275305 336.59765625 214.0625 C337.17789551 214.56652344 337.75813477 215.07054687 338.35595703 215.58984375 C340.52599485 217.45116517 342.75480216 219.23038594 345 221 C349.45333968 224.52947018 353.78868839 228.18333164 358.11547852 231.86547852 C361.5246909 234.76303423 364.96352278 237.61744791 368.4375 240.4375 C375.06354338 245.83685605 381.54390771 251.3995344 388 257 C388.5161084 257.44472656 389.0322168 257.88945313 389.56396484 258.34765625 C390.9654401 259.55804228 392.35799649 260.77873285 393.75 262 C394.91789063 263.0209375 394.91789063 263.0209375 396.109375 264.0625 C398.08321404 266.08527719 399.11606245 267.32199878 400 270 C399.1640625 272.56762695 399.1640625 272.56762695 397.625 275.48828125 C397.059021 276.57568604 396.49304199 277.66309082 395.90991211 278.78344727 C395.2743546 279.96038195 394.63768901 281.13671884 394 282.3125 C393.35319375 283.52835001 392.70679554 284.74441718 392.06079102 285.96069336 C382.31608961 304.17360202 371.48625421 321.53902178 359 338 C358.5246582 338.63228516 358.04931641 339.26457031 357.55957031 339.91601562 C351.68140239 347.70695338 345.41482824 354.99584119 338.71875 362.09375 C336.49225344 364.47379805 334.35426882 366.88813685 332.25 369.375 C329.44268243 372.61525329 326.40780856 375.40546762 323.13671875 378.171875 C320.86344379 380.1168342 318.68924351 382.14860655 316.5 384.1875 C300.01160623 398.99186575 281.08832718 410.74301139 261 420 C260.28827637 420.3309668 259.57655273 420.66193359 258.84326172 421.00292969 C206.4781036 445.05109064 143.72944127 448.28386511 89.45483398 428.86157227 C64.11316299 419.45237534 41.54214272 406.83707443 22 388 C21.42282227 387.44473633 20.84564453 386.88947266 20.25097656 386.31738281 C11.8012069 378.14180795 4.15436177 369.73799151 -2.99609375 360.390625 C-3.61613281 359.58109375 -4.23617187 358.7715625 -4.875 357.9375 C-5.40867187 357.22464844 -5.94234375 356.51179688 -6.4921875 355.77734375 C-8.0655311 353.75723791 -8.0655311 353.75723791 -11 352 C-13.55460214 351.92727438 -13.55460214 351.92727438 -16 353 C-19.26874712 356.49417796 -19.55150968 360.12218231 -19.43359375 364.70703125 C-18.52465505 371.61005218 -16.44498455 378.28078111 -14.55126953 384.96728516 C-13.92047008 387.29325336 -13.41879142 389.62684862 -13 392 C-29.28271097 384.77522096 -42.50781261 360.80342665 -51 346 C-51.58201172 344.99767334 -51.58201172 344.99767334 -52.17578125 343.97509766 C-85.13687093 286.56786647 -84.60605742 216.63832445 -67.78125 154.296875 C-66.2650769 148.80139288 -64.55713242 143.37827994 -62.77636719 137.96313477 C-61.63632427 133.61197095 -61.63764402 129.45899169 -62 125 C-64.15981613 124.11310085 -64.15981613 124.11310085 -67 124 C-74.90122343 127.80951844 -79.97700429 133.00207833 -85.23046875 139.953125 C-86.10638672 140.96632813 -86.10638672 140.96632813 -87 142 C-87.66 142 -88.32 142 -89 142 C-85.20733743 101.46945676 -66.72361483 66.15533586 -40 36 C-39.52304688 35.45988281 -39.04609375 34.91976562 -38.5546875 34.36328125 C-26.88901821 21.23160539 -14.37255011 10.09855527 0 0 Z " fill="#E40611" transform="translate(118,398)"/>
<path d="M0 0 C0.33 0 0.66 0 1 0 C1.08636719 0.83402344 1.17273438 1.66804688 1.26171875 2.52734375 C2.46987222 12.20365552 4.43041432 19.27765701 12 25.75 C22.58955666 33.30645517 34.7289225 35.29654215 47.3984375 36.3828125 C58.26066123 37.35167344 68.97586372 38.38125578 77 46.625 C82.9591179 54.41658273 84.63952324 64.02165362 86.43041992 73.45458984 C87.68192182 79.68529616 89.29241369 85.80286029 94.3828125 89.93359375 C97.27213306 91.11088407 99.77805706 91.66476294 102.875 92.0625 C104.70804688 92.30033203 104.70804688 92.30033203 106.578125 92.54296875 C109.91750523 92.9132315 113.25859844 93.18072614 116.609375 93.42578125 C137.96530962 94.99501693 152.32401374 100.64312845 168.4296875 114.890625 C171.84787161 117.90370482 175.39329818 120.71738438 179 123.5 C184.46134383 127.73045684 189.73568079 132.13754682 194.95874023 136.65795898 C199.314875 140.42617172 203.74668518 144.08848562 208.21875 147.71875 C211.36383795 150.29842888 214.46479676 152.92631983 217.5625 155.5625 C222.11140418 159.43129353 226.72507343 163.19778544 231.40625 166.90625 C234.48081204 169.38812539 237.49134886 171.9389817 240.5 174.5 C258.59811317 190.46191834 258.59811317 190.46191834 280 201 C280.89332031 201.28423828 280.89332031 201.28423828 281.8046875 201.57421875 C292.81258349 203.70920214 303.83478852 202.34989489 313.42578125 196.52734375 C322.85586344 189.82326852 328.70691108 180.30067173 331 169 C331.69068173 161.03530311 331.12212383 153.6926989 329 146 C338.10627613 147.65754689 345.63314605 157.0412018 351 164 C364.30470816 183.80124133 369.05173107 207.39062331 364.8125 230.875 C361.61573647 244.80694154 355.5081473 256.26074153 345 266 C362.66545653 271.88848551 386.67860938 265.55333639 403 258 C416.89801901 251.04081625 426.64102139 240.81305869 432.23828125 226.359375 C436.34691784 213.63313654 434.44494923 200.13976248 428.6796875 188.28515625 C420.86857839 174.43430977 409.05068518 165.04008845 394.0859375 159.75390625 C391.95966404 158.98542165 390.00208607 158.0463391 388 157 C409.50098537 150.07500731 439.6890924 159.69848456 458.90307617 169.24755859 C466.87493639 173.40968979 474.07071742 178.25230029 481 184 C481.87140625 184.71929688 482.7428125 185.43859375 483.640625 186.1796875 C502.65957052 202.57331846 515.57900795 225.87099923 518 251 C519.82966458 277.68260842 512.89406149 303.33941069 495.4375 323.9375 C493.64899943 325.9821464 491.83024772 327.9920044 490 330 C489.14341797 330.98033203 489.14341797 330.98033203 488.26953125 331.98046875 C478.34839135 342.71774355 465.21838134 350.13823613 452 356 C450.92234375 356.48210937 449.8446875 356.96421875 448.734375 357.4609375 C432.76748566 364.08037655 416.14661263 366.18019058 399 366.0625 C397.74832031 366.05798828 396.49664063 366.05347656 395.20703125 366.04882812 C392.13797059 366.03711415 389.06901093 366.02071073 386 366 C400.06692426 375.50597612 415.24161792 381.21065545 432 384 C433.09634766 384.19529297 433.09634766 384.19529297 434.21484375 384.39453125 C444.16424793 385.92051349 453.33669846 384.99918967 463.06640625 382.65625 C466 382 466 382 469 382 C464.93861992 394.88842579 448.80791555 404.30001431 437.52294922 410.32177734 C402.04560114 428.54630663 360.39204937 435.89984204 321.73046875 423.6796875 C308.37105136 419.17683064 296.65679733 412.22052348 286 403 C285.21496094 402.3709375 284.42992187 401.741875 283.62109375 401.09375 C260.38916194 381.70273147 248.34917588 352.28445096 244 323 C232.86574608 337.79219325 226.99543666 354.09785859 229.50390625 372.74609375 C231.36627565 384.58361983 234.61958909 394.90591161 242.546875 404.16015625 C244 406 244 406 245 409 C239.8284592 408.43072962 235.87850964 406.77211676 231.3125 404.4375 C230.60770508 404.07817383 229.90291016 403.71884766 229.17675781 403.34863281 C208.44901071 392.52634807 192.93537903 375.16713779 185.5859375 352.90332031 C180.29567805 335.7187942 181.52386777 317.79923915 182.765625 300.0859375 C184.24013365 276.57571631 182.70718504 254.83157989 167 236 C161.7399969 230.14161122 155.88861167 225.16459016 149.75390625 220.25 C147.0907355 218.07413284 144.53957552 215.81821791 142 213.5 C137.75832974 209.6390781 133.37966073 205.99450297 128.921875 202.38671875 C125.72588762 199.7760927 122.57937757 197.11268932 119.4375 194.4375 C114.94837363 190.62252649 110.40979333 186.88688346 105.79296875 183.2265625 C101.46809864 179.77876395 97.18490637 176.27988078 92.89672852 172.78662109 C89.16100437 169.7461727 85.40711286 166.73273885 81.625 163.75 C63.85972832 149.46636448 50.83059654 133.06873025 48.19140625 109.80859375 C47.86339396 106.61685739 47.56127029 103.42394017 47.27148438 100.22851562 C45.88351804 86.89911115 41.28322611 77.21135118 30.9375 68.625 C27.89441118 66.21537049 24.81605585 63.85732998 21.71484375 61.5234375 C9.0161952 51.95580993 -2.22138381 42.31271291 -4.81640625 25.69921875 C-5.44539868 16.45169182 -4.6223968 8.12681857 0 0 Z " fill="#E40611" transform="translate(361,424)"/>
<path d="M0 0 C0.33 0 0.66 0 1 0 C1.03440186 0.54712646 1.06880371 1.09425293 1.10424805 1.65795898 C3.33124226 34.72450717 16.40744341 59.07706865 38.7109375 83.48828125 C40.25260229 85.1799032 41.77845444 86.88605651 43.2890625 88.60546875 C47.31033118 93.17257974 51.38454814 97.36597526 56.03515625 101.2890625 C58.12377094 103.10777669 60.05901505 105.02496268 62 107 C65.14643057 110.18919759 68.40606585 113.16474822 71.80078125 116.0859375 C74.40391882 118.35154569 76.95158724 120.67303552 79.5 123 C82.61907011 125.84524228 85.74755391 128.6719958 88.9375 131.4375 C104.59827951 145.10508939 119.63136138 159.22896458 132 176 C127.97962172 167.10786921 123.1116175 159.59055058 117 152 C116.2575 151.05253906 115.515 150.10507812 114.75 149.12890625 C108.5674924 141.50975826 101.74195998 134.5583356 94.8125 127.625 C94.10246323 126.91346771 94.10246323 126.91346771 93.37808228 126.18756104 C88.32564352 121.13632511 83.21987362 116.20555777 77.79858398 111.55126953 C75.00931767 109.14554154 72.32033773 106.63484577 69.625 104.125 C65.67824394 100.4620801 61.70880023 96.8313737 57.6875 93.25 C56.12171025 91.83697022 54.55904739 90.4204654 53 89 C52.25621094 88.32324219 51.51242187 87.64648438 50.74609375 86.94921875 C42.49814083 79.12657464 39.13239963 70.46102774 38.69921875 59.125 C38.67985221 57.41677198 38.67645494 55.70830209 38.6875 54 C38.69487183 52.63294922 38.69487183 52.63294922 38.70239258 51.23828125 C38.95464514 36.39806881 41.42403982 20.4990058 50 8 C50.66 8 51.32 8 52 8 C52.02578125 9.05316406 52.0515625 10.10632813 52.078125 11.19140625 C53.16552849 42.33333285 68.30389397 66.1527196 88.78125 88.55859375 C90.19691285 90.11632136 91.59486082 91.69046345 92.96875 93.28515625 C100.36959499 101.81036038 108.71450459 109.35063467 117 117 C117.58813477 117.54398437 118.17626953 118.08796875 118.78222656 118.6484375 C125.00440606 124.39775444 125.00440606 124.39775444 131.32421875 130.0390625 C158.26273214 153.73031875 183.597545 181.98953087 188 219 C188.37178574 225.49936551 188.17854203 231.59405383 187 238 C187.86625 238.2475 188.7325 238.495 189.625 238.75 C195.86538503 241.06125372 199.68882619 244.07317054 203.03125 249.76171875 C204.61085749 253.41137639 204.89959151 257.05668486 205 261 C215.72980911 256.3407092 223.1800575 250.46063491 228.80859375 240.1015625 C230 238 230 238 232 236 C234.98416281 238.98416281 233.31196183 248.49888833 233.31689453 252.51904297 C233.20721035 262.4867622 231.98116625 271.5029209 229 281 C228.67854004 282.03108887 228.67854004 282.03108887 228.35058594 283.08300781 C223.61599271 297.76920603 216.35054753 310.47907254 206 322 C205.02933594 323.09441406 205.02933594 323.09441406 204.0390625 324.2109375 C199.06817062 329.50645905 193.39431187 333.55525287 187 337 C186.34 337 185.68 337 185 337 C185.165 336.13375 185.33 335.2675 185.5 334.375 C187.06105716 322.86511589 186.91457759 311.34103671 179.8125 301.625 C164.09814187 286.95826575 140.09746837 287.67155355 120 287 C120.56589844 285.81921875 121.13179688 284.6384375 121.71484375 283.421875 C122.45592103 281.86467463 123.19679588 280.3073779 123.9375 278.75 C124.49727539 277.58404297 124.49727539 277.58404297 125.06835938 276.39453125 C125.42607422 275.64042969 125.78378906 274.88632812 126.15234375 274.109375 C126.48226318 273.41811523 126.81218262 272.72685547 127.15209961 272.01464844 C129.32725319 266.84638833 129.73746964 261.54001583 129 256 C126.44220185 251.70655311 123.44299549 250.64568021 118.8125 249.39453125 C111.15334057 247.57078467 103.5703581 247.53887728 95.75 247.625 C94.63399918 247.63148056 94.63399918 247.63148056 93.49545288 247.63809204 C72.11010036 247.78297577 51.78472067 251.05893703 31 256 C31.69971924 256.07516846 32.39943848 256.15033691 33.12036133 256.2277832 C36.35214173 256.58023935 39.58224971 256.94629565 42.8125 257.3125 C43.91271484 257.43044922 45.01292969 257.54839844 46.14648438 257.66992188 C53.32920177 258.49625219 60.08797941 259.87609773 67 262 C65.70999229 266.01864152 64.24165583 269.87904886 62.5625 273.75 C55.95454639 289.51620925 55.95454639 289.51620925 57.0625 306.125 C58.80622541 309.13132941 58.80622541 309.13132941 61.6875 310.6875 C67.52184213 311.23790964 71.46638175 308.15021369 76 304.75 C76.66 304.1725 77.32 303.595 78 303 C77.72916667 304.35416667 77.45833333 305.70833333 77.1875 307.0625 C77.00832031 307.97257812 76.82914062 308.88265625 76.64453125 309.8203125 C76.18437315 312.09042578 75.69988045 314.35566199 75.19921875 316.6171875 C71.95851522 330.48775302 71.95851522 330.48775302 75 344 C82.24169028 348.46827698 90.90339426 347.75061746 99 346 C97.62381355 355.80750597 89.01122271 364.28561959 81.48583984 370.1875 C64.39698948 383.04305596 41.74692144 392.72442549 20 391 C22.32480037 389.12516099 24.64654687 387.25937815 27.0546875 385.4921875 C36.1713317 378.70990894 42.45754114 371.46075863 47 361 C46.28199219 361.2165625 45.56398438 361.433125 44.82421875 361.65625 C34.80191155 364.35216327 25.3110796 364.29398009 15 364 C15.75539063 363.24589844 16.51078125 362.49179687 17.2890625 361.71484375 C18.18367187 360.81894531 19.07828125 359.92304687 20 359 C20.58523438 358.42378906 21.17046875 357.84757812 21.7734375 357.25390625 C32.96553364 345.43396081 36.67309738 331.21636606 36.30859375 315.41796875 C35.7660057 304.79810215 30.65379977 295.10633676 22.78125 287.99609375 C8.2041511 277.03960546 -9.30537898 274.69200595 -27 277 C-36.01308467 278.51705386 -43.85199534 281.93913961 -52 286 C-49.85433093 268.03002156 -32.81479978 250.53720876 -19.22949219 239.57080078 C-13.21153276 235.00912665 -6.88740933 231.10608656 0 228 C-12.4861459 223.79621163 -25.1253055 220.76827295 -38 218 C-36.20050944 212.60152833 -30.04215286 210.54326578 -25.17431641 208.04638672 C-6.61388278 199.11420409 13.73050118 194.79187946 34 192 C-7.78050047 190.93771464 -44.1990416 198.42032478 -76 227 C-75.27522461 227.10546143 -74.55044922 227.21092285 -73.80371094 227.31958008 C-70.45152827 227.81099534 -67.10079329 228.31170209 -63.75 228.8125 C-62.61046875 228.97814453 -61.4709375 229.14378906 -60.296875 229.31445312 C-44.79892603 231.64795112 -44.79892603 231.64795112 -38 234 C-37.67 234.66 -37.34 235.32 -37 236 C-37.57105469 236.1544458 -38.14210937 236.3088916 -38.73046875 236.46801758 C-75.17160909 246.50164237 -114.28332286 266.0446739 -140.71484375 293.80078125 C-142 295 -142 295 -144 295 C-143.14826349 288.95939504 -142.21927465 282.96076943 -140.9765625 276.98828125 C-136.23836474 254.71838116 -136.23836474 254.71838116 -143.4375 233.7890625 C-149.69848298 225.69192586 -159.16973629 222.52254518 -169 221 C-172.92109656 220.70502229 -176.81896512 220.66789231 -180.75 220.6875 C-182.36926392 220.68943359 -182.36926392 220.68943359 -184.02124023 220.69140625 C-194.51137897 220.81430456 -204.68498939 222.17778992 -215 224 C-199.49792546 205.35398912 -176.14716455 194.66162841 -155.09179688 183.45166016 C-132.61566803 173.10541357 -132.61566803 173.10541357 -116.9375 155.3125 C-117.11401663 145.95711851 -122.05221955 138.80426083 -128 132 C-128.62390625 131.22140625 -129.2478125 130.4428125 -129.890625 129.640625 C-137.09423974 121.00728519 -146.77739554 112.86616763 -157 108 C-157 107.34 -157 106.68 -157 106 C-142.34842128 105.70408515 -127.82397243 105.54754784 -113.25 107.3125 C-112.25943604 107.43020752 -111.26887207 107.54791504 -110.24829102 107.66918945 C-103.94306298 108.51114344 -98.03271004 109.99046648 -92 112 C-92.38671875 111.2471875 -92.7734375 110.494375 -93.171875 109.71875 C-99.5005105 96.81083997 -102.33366167 85.02713095 -102.4375 70.6875 C-102.44765137 69.6977417 -102.45780273 68.7079834 -102.46826172 67.68823242 C-102.38593945 60.73895776 -101.12229368 54.60781192 -99 48 C-96.67647091 51.03193191 -94.82322127 54.0782148 -93 57.4375 C-77.9277118 83.33414549 -51.76191837 97.71866064 -26.45483398 112.04223633 C3.87429151 129.21914281 3.87429151 129.21914281 16 140 C16.64710938 140.51691406 17.29421875 141.03382813 17.9609375 141.56640625 C22.78380583 145.43101908 26.36297781 150.02534958 30 155 C24.97698751 137.77080688 10.02493847 123.42579108 -4 113 C-5.48965466 112.22965656 -6.98840634 111.4763502 -8.5 110.75 C-12.47310749 108.45369255 -13.16894341 105.41371444 -14.4375 101.125 C-16.95902406 90.83537267 -17.24069764 80.77643751 -17.25 70.25 C-17.25100708 69.46443726 -17.25201416 68.67887451 -17.25305176 67.86950684 C-17.24273629 55.98911618 -16.68506356 44.61384944 -14 33 C-13.73316406 31.71222656 -13.46632813 30.42445313 -13.19140625 29.09765625 C-10.98585621 19.59908741 -7.10325757 7.10325757 0 0 Z M31 156 C32 158 32 158 32 158 Z M134 179 C135 181 135 181 135 181 Z M94 188 C98.13929341 201.96296209 102.93819821 215.5719298 116.19140625 223.2734375 C121.42587592 225.84060349 126.20567634 226.63210643 132 227 C130.23405442 215.13370711 120.53319995 203.84013749 111.21630859 196.6171875 C103.26527142 190.82344609 103.26527142 190.82344609 94 188 Z " fill="#E40611" transform="translate(273,159)"/>
<path d="M0 0 C0.91567749 -0.00067474 1.83135498 -0.00134949 2.77478027 -0.00204468 C16.8160177 0.01438519 30.50215348 0.49384634 44.3125 3.25 C45.19164062 3.42160645 46.07078125 3.59321289 46.9765625 3.77001953 C87.73117448 11.98407047 125.62206984 33.21505545 149.05859375 68.30712891 C171.93293321 103.74988464 181.2855953 148.19015267 172.85595703 189.76074219 C164.53035398 227.89544512 148.10938383 263.33278872 124.3125 294.25 C120.38035699 292.66060574 117.98229654 290.08657498 115.0625 287.0625 C111.34556166 283.26262172 107.56342941 279.63038658 103.5234375 276.17578125 C100.07109167 273.16870263 96.728078 270.04485606 93.37158203 266.93164062 C90.68147829 264.43705433 87.98738768 261.94833598 85.265625 259.48828125 C74.92716405 250.12076041 64.83785644 240.60764868 56.1953125 229.62109375 C54.59911032 227.61093873 52.93464798 225.75103595 51.1875 223.875 C49.3125 221.25 49.3125 221.25 49.46484375 219.03515625 C50.55014924 215.46915248 52.24710541 212.33155348 54 209.0625 C67.00406379 183.73925896 71.46947435 154.69818963 63.125 127.125 C57.80691723 110.68061494 48.85600265 97.63529398 33.6875 88.90625 C25.97984786 85.12379108 17.87510668 82.82084045 9.3125 82.25 C8.32636719 82.17265625 8.32636719 82.17265625 7.3203125 82.09375 C-8.69065209 81.38997134 -24.07626003 88.15390773 -36.140625 98.31640625 C-50.84782839 112.29825437 -57.54287674 130.91640769 -58.93359375 150.76171875 C-59.06780126 157.30630839 -58.32647718 163.47596228 -57.02734375 169.88671875 C-56.28732907 177.21031235 -57.83915643 184.45441772 -59.14770508 191.64624023 C-62.98447835 212.81877333 -63.0580661 232.91490511 -60.6875 254.25 C-66.07820312 252.7690376 -70.25979161 250.23080199 -74.875 247.1875 C-76.00373535 246.44669189 -76.00373535 246.44669189 -77.15527344 245.69091797 C-104.448294 227.54041587 -123.2448945 202.34704069 -133.6875 171.25 C-136.95495626 174.92588829 -138.20202076 179.03159637 -139.6875 183.625 C-139.94877686 184.42212402 -140.21005371 185.21924805 -140.47924805 186.04052734 C-147.24266281 207.16432823 -149.21583735 229.52167958 -144.34375 251.265625 C-143.6875 254.25 -143.6875 254.25 -143.6875 257.25 C-156.1187208 252.16577037 -163.95095087 232.70628353 -168.9375 221.0625 C-175.14345978 204.61670658 -177.73774583 187.73665035 -178.6875 170.25 C-178.77837891 168.62771484 -178.77837891 168.62771484 -178.87109375 166.97265625 C-178.94255233 164.04285451 -178.85165492 161.17684724 -178.6875 158.25 C-178.64641113 157.49879883 -178.60532227 156.74759766 -178.56298828 155.97363281 C-176.66386 124.16778469 -167.58148082 93.55575338 -147.6875 68.25 C-147.03523438 67.3940625 -146.38296875 66.538125 -145.7109375 65.65625 C-115.76886512 27.52776831 -72.8342877 6.44699559 -25.2578125 0.65625 C-16.87084149 -0.10986359 -8.41459475 0.00556097 0 0 Z " fill="#E40611" transform="translate(306.6875,2.75)"/>
<path d="M0 0 C-2.51199025 2.83666927 -5.32469185 4.4250234 -8.625 6.25 C-22.54352643 14.21958658 -22.54352643 14.21958658 -31 27.25 C-31.25423759 30.21956883 -31.25423759 30.21956883 -29 33 C-21.30432055 34.06782155 -14.47254886 31.16143503 -7.25 28.75 C8.16818869 23.7512681 23.70424416 19.54398024 40 19 C40.89847656 18.96003906 41.79695313 18.92007812 42.72265625 18.87890625 C78.98717056 18.03090523 115.95003074 31.6857166 145 53 C145.5249707 53.38510742 146.04994141 53.77021484 146.59082031 54.16699219 C154.09759923 59.71242172 161.20268297 65.59460034 168 72 C168.96486328 72.90298828 168.96486328 72.90298828 169.94921875 73.82421875 C171.34627561 75.16917092 172.68177099 76.57770028 174 78 C174 78.66 174 79.32 174 80 C172.86208008 79.78887573 172.86208008 79.78887573 171.70117188 79.57348633 C162.93432428 78.07107113 154.3821395 77.63793168 145.5 77.6875 C144.80035126 77.68965515 144.10070251 77.6918103 143.37985229 77.69403076 C111.83038455 77.84914431 72.07547277 83.95127569 46.2890625 103.80859375 C43 106 43 106 40.92480469 105.71411133 C38.57894727 104.84378751 36.71150876 103.63151092 34.625 102.25 C14.13937807 89.68065085 -10.91963719 89.11397906 -33.8359375 93.78125 C-64.9667892 101.35185544 -86.16105125 121.14849065 -105 146 C-105.80244141 147.04969971 -105.80244141 147.04969971 -106.62109375 148.12060547 C-131.70687266 181.03482751 -152.94731052 217.86239921 -169 256 C-172.90004361 254.30681034 -176.07298326 251.75157296 -179.375 249.125 C-180.29647827 248.39796875 -180.29647827 248.39796875 -181.23657227 247.65625 C-185.56802432 244.21184311 -189.76701015 240.63634428 -193.9375 237 C-204.16642417 228.1370457 -214.32788002 220.03831276 -227 215 C-228.34008903 214.34701944 -229.67592331 213.68486725 -231 213 C-228.40467069 208.27258094 -225.63958568 204.01467022 -222.3125 199.75 C-221.87462158 199.18845215 -221.43674316 198.6269043 -220.9855957 198.04833984 C-210.12815814 184.17919293 -198.89995738 170.60888694 -186.29296875 158.29296875 C-184.50028972 156.50028972 -182.87977614 154.73382793 -181.3125 152.75 C-178.79757375 149.75927689 -176.06279706 147.36965571 -173.09375 144.84375 C-171.02155257 143.01897913 -169.10765659 141.10811254 -167.1875 139.125 C-162.930254 134.81834689 -158.31974209 131.06410247 -153.58984375 127.29101562 C-151.93161689 125.94447023 -150.30865745 124.56277567 -148.6875 123.171875 C-111.82475052 91.86914817 -67.75302506 69.93419715 -20 62 C-69.70496274 59.53197067 -123.70984916 87.41423381 -161 118 C-161.92498291 118.75361816 -161.92498291 118.75361816 -162.86865234 119.52246094 C-173.31302851 128.08634793 -183.73817982 137.26753981 -192 148 C-192.66 147.67 -193.32 147.34 -194 147 C-190.34105964 135.02528611 -185.96285629 124.00667682 -180 113 C-179.64534668 112.33226562 -179.29069336 111.66453125 -178.92529297 110.9765625 C-173.66161054 101.08851131 -167.76183242 91.92551756 -161 83 C-160.56429687 82.42008301 -160.12859375 81.84016602 -159.6796875 81.24267578 C-152.95899918 72.33825503 -145.73575232 64.03385453 -138 56 C-137.49823242 55.47631836 -136.99646484 54.95263672 -136.47949219 54.41308594 C-127.29707238 44.87636055 -117.50416896 36.6262657 -106.625 29.0625 C-105.94663086 28.5893335 -105.26826172 28.11616699 -104.56933594 27.62866211 C-101.14936605 25.29366282 -97.95693102 23.33680102 -94 22 C-95.7576734 25.81774223 -98.07255126 29.24812522 -100.375 32.75 C-105.51092025 40.69859429 -109.55057019 47.29231614 -110 57 C-97.1750322 56.78975463 -88.77050855 48.13737508 -79.60546875 40.1171875 C-58.28147151 21.52999077 -29.91742752 -1.75984868 0 0 Z " fill="#E40611" transform="translate(734,296)"/>
</svg>
